<svg width="111" height="88" viewBox="0 0 111 88" fill="none" xmlns="http://www.w3.org/2000/svg">
<path opacity="0.5" d="M6.507 6.806C7.419 6.806 8.229 6.998 8.937 7.382C9.651 7.76 10.224 8.267 10.656 8.903C11.088 9.539 11.343 10.238 11.421 11H9.648C9.498 10.238 9.156 9.59 8.622 9.056C8.094 8.522 7.374 8.255 6.462 8.255C5.274 8.255 4.368 8.675 3.744 9.515C3.126 10.349 2.817 11.666 2.817 13.466C2.817 15.278 3.126 16.61 3.744 17.462C4.368 18.308 5.274 18.731 6.462 18.731C7.074 18.731 7.599 18.602 8.037 18.344C8.475 18.08 8.829 17.735 9.099 17.309C9.369 16.877 9.552 16.409 9.648 15.905H11.421C11.331 16.643 11.094 17.339 10.71 17.993C10.332 18.641 9.795 19.169 9.099 19.577C8.403 19.979 7.539 20.18 6.507 20.18C4.749 20.18 3.387 19.589 2.421 18.407C1.455 17.225 0.972 15.572 0.972 13.448C0.972 11.33 1.452 9.695 2.412 8.543C3.378 7.385 4.743 6.806 6.507 6.806ZM17.1334 20.18C15.8434 20.18 14.8084 19.769 14.0284 18.947C13.2484 18.125 12.8584 16.937 12.8584 15.383C12.8584 14.411 13.0234 13.559 13.3534 12.827C13.6834 12.095 14.1664 11.528 14.8024 11.126C15.4384 10.718 16.2154 10.514 17.1334 10.514C18.4174 10.514 19.4434 10.934 20.2114 11.774C20.9794 12.614 21.3634 13.817 21.3634 15.383C21.3634 16.331 21.2014 17.165 20.8774 17.885C20.5594 18.605 20.0854 19.169 19.4554 19.577C18.8314 19.979 18.0574 20.18 17.1334 20.18ZM17.1334 18.866C17.9674 18.866 18.6064 18.554 19.0504 17.93C19.4944 17.3 19.7164 16.439 19.7164 15.347C19.7164 14.681 19.6264 14.084 19.4464 13.556C19.2724 13.022 18.9964 12.599 18.6184 12.287C18.2404 11.975 17.7454 11.819 17.1334 11.819C16.2874 11.819 15.6394 12.131 15.1894 12.755C14.7394 13.373 14.5144 14.237 14.5144 15.347C14.5144 16.001 14.6044 16.595 14.7844 17.129C14.9644 17.663 15.2464 18.086 15.6304 18.398C16.0144 18.71 16.5154 18.866 17.1334 18.866ZM25.5908 20.117C24.9188 20.117 24.4148 20 24.0788 19.766C23.7428 19.526 23.5178 19.217 23.4038 18.839C23.2958 18.455 23.2418 18.044 23.2418 17.606V6.626H24.8798V17.444C24.8798 17.918 24.9698 18.272 25.1498 18.506C25.3358 18.734 25.5938 18.86 25.9238 18.884L26.4278 18.893V19.973C26.1278 20.069 25.8488 20.117 25.5908 20.117ZM31.844 20.18C30.554 20.18 29.519 19.769 28.739 18.947C27.959 18.125 27.569 16.937 27.569 15.383C27.569 14.411 27.734 13.559 28.064 12.827C28.394 12.095 28.877 11.528 29.513 11.126C30.149 10.718 30.926 10.514 31.844 10.514C33.128 10.514 34.154 10.934 34.922 11.774C35.69 12.614 36.074 13.817 36.074 15.383C36.074 16.331 35.912 17.165 35.588 17.885C35.27 18.605 34.796 19.169 34.166 19.577C33.542 19.979 32.768 20.18 31.844 20.18ZM31.844 18.866C32.678 18.866 33.317 18.554 33.761 17.93C34.205 17.3 34.427 16.439 34.427 15.347C34.427 14.681 34.337 14.084 34.157 13.556C33.983 13.022 33.707 12.599 33.329 12.287C32.951 11.975 32.456 11.819 31.844 11.819C30.998 11.819 30.35 12.131 29.9 12.755C29.45 13.373 29.225 14.237 29.225 15.347C29.225 16.001 29.315 16.595 29.495 17.129C29.675 17.663 29.957 18.086 30.341 18.398C30.725 18.71 31.226 18.866 31.844 18.866ZM37.9524 20V10.694H39.5364V12.485C39.7704 11.819 40.1394 11.324 40.6434 11C41.1534 10.676 41.7024 10.514 42.2904 10.514C42.4284 10.514 42.5604 10.523 42.6864 10.541C42.8184 10.559 42.9234 10.589 43.0014 10.631V12.242C42.9114 12.2 42.7944 12.173 42.6504 12.161C42.5124 12.143 42.3954 12.134 42.2994 12.134C41.5614 12.086 40.9284 12.227 40.4004 12.557C39.8724 12.887 39.6084 13.439 39.6084 14.213V20H37.9524Z" fill="black"/>
<rect x="1" y="37" width="50" height="50" rx="25" fill="#DF9167" stroke="#0D0D0D"/>
<rect x="60" y="36" width="50" height="50" rx="25" fill="black" stroke="#0D0D0D"/>
</svg>
