<svg width="400" height="88" viewBox="0 0 400 88" fill="none" xmlns="http://www.w3.org/2000/svg">
<path opacity="0.5" d="M6.138 20.18C5.322 20.18 4.545 20.045 3.807 19.775C3.075 19.499 2.457 19.091 1.953 18.551C1.455 18.011 1.152 17.342 1.044 16.544H2.79C2.952 17.282 3.345 17.843 3.969 18.227C4.593 18.605 5.313 18.794 6.129 18.794C7.047 18.794 7.809 18.605 8.415 18.227C9.027 17.843 9.333 17.321 9.333 16.661C9.333 16.073 9.135 15.605 8.739 15.257C8.349 14.903 7.794 14.642 7.074 14.474L4.518 13.88C3.558 13.67 2.805 13.295 2.259 12.755C1.719 12.215 1.443 11.501 1.431 10.613C1.431 9.863 1.629 9.203 2.025 8.633C2.421 8.063 2.97 7.619 3.672 7.301C4.374 6.983 5.175 6.824 6.075 6.824C7.113 6.824 7.986 7.001 8.694 7.355C9.402 7.709 9.936 8.174 10.296 8.75C10.656 9.326 10.839 9.941 10.845 10.595H9.126C9.072 10.007 8.898 9.542 8.604 9.2C8.316 8.852 7.95 8.606 7.506 8.462C7.068 8.312 6.594 8.237 6.084 8.237C5.592 8.237 5.124 8.321 4.68 8.489C4.242 8.657 3.882 8.906 3.6 9.236C3.324 9.56 3.186 9.965 3.186 10.451C3.186 10.925 3.345 11.309 3.663 11.603C3.981 11.891 4.566 12.14 5.418 12.35L7.893 12.944C8.757 13.13 9.414 13.427 9.864 13.835C10.314 14.237 10.62 14.687 10.782 15.185C10.95 15.683 11.034 16.169 11.034 16.643C11.034 17.297 10.839 17.891 10.449 18.425C10.065 18.959 9.507 19.385 8.775 19.703C8.043 20.021 7.164 20.18 6.138 20.18ZM15.0419 6.995V8.723H13.3409V6.995H15.0419ZM15.0059 10.694V20H13.3949V10.694H15.0059ZM16.9414 20V18.965L22.1974 11.918H17.1664V10.694H24.1774V11.729L18.9304 18.776H24.2224V20H16.9414ZM27.0302 15.734C27.0302 16.322 27.1262 16.856 27.3182 17.336C27.5162 17.81 27.8132 18.188 28.2092 18.47C28.6112 18.752 29.1122 18.893 29.7122 18.893C30.3062 18.893 30.8162 18.755 31.2422 18.479C31.6742 18.203 31.9502 17.804 32.0702 17.282H33.6452C33.5312 17.912 33.2792 18.443 32.8892 18.875C32.4992 19.307 32.0282 19.634 31.4762 19.856C30.9242 20.072 30.3482 20.18 29.7482 20.18C28.8782 20.18 28.1132 19.991 27.4532 19.613C26.7932 19.235 26.2772 18.692 25.9052 17.984C25.5332 17.276 25.3472 16.427 25.3472 15.437C25.3472 14.459 25.5152 13.601 25.8512 12.863C26.1872 12.125 26.6732 11.549 27.3092 11.135C27.9512 10.721 28.7222 10.514 29.6222 10.514C30.9362 10.514 31.9442 10.931 32.6462 11.765C33.3482 12.593 33.6992 13.712 33.6992 15.122V15.734H27.0302ZM27.0392 14.609H32.0972C32.0972 13.811 31.8932 13.139 31.4852 12.593C31.0772 12.047 30.4532 11.774 29.6132 11.774C29.0312 11.774 28.5482 11.915 28.1642 12.197C27.7802 12.473 27.4952 12.83 27.3092 13.268C27.1232 13.7 27.0332 14.147 27.0392 14.609Z" fill="black"/>
<rect x="1" y="37" width="50" height="50" stroke="#0D0D0D"/>
<path d="M25.8028 68H23.3868L20.5388 63.552L17.7388 68H15.6268L19.5068 62.112L15.7548 56.432H18.1548L20.7228 60.48L23.2748 56.432H25.3708L21.7468 61.88L25.8028 68ZM31.2741 68.16C30.5274 68.16 29.8101 68.0347 29.1221 67.784C28.4394 67.5333 27.8661 67.16 27.4021 66.664C26.9381 66.168 26.6607 65.5467 26.5701 64.8H28.5861C28.7141 65.3867 29.0234 65.8347 29.5141 66.144C30.0047 66.448 30.5887 66.6 31.2661 66.6C31.9807 66.6 32.5861 66.4587 33.0821 66.176C33.5781 65.8933 33.8261 65.4827 33.8261 64.944C33.8261 64.4693 33.6447 64.104 33.2821 63.848C32.9194 63.5867 32.4421 63.392 31.8501 63.264L29.7221 62.8C28.8581 62.624 28.1754 62.2827 27.6741 61.776C27.1781 61.2693 26.9247 60.5947 26.9141 59.752C26.9087 59.0533 27.0927 58.4453 27.4661 57.928C27.8394 57.4053 28.3514 57.0027 29.0021 56.72C29.6581 56.432 30.3967 56.288 31.2181 56.288C32.1781 56.288 32.9861 56.4453 33.6421 56.76C34.2981 57.0747 34.7941 57.4933 35.1301 58.016C35.4714 58.5333 35.6474 59.104 35.6581 59.728H33.6901C33.6207 59.04 33.3541 58.56 32.8901 58.288C32.4314 58.0107 31.8821 57.872 31.2421 57.872C30.6021 57.872 30.0607 58.0187 29.6181 58.312C29.1807 58.6053 28.9621 59.0133 28.9621 59.536C28.9621 59.9093 29.0847 60.2133 29.3301 60.448C29.5807 60.6773 30.0474 60.872 30.7301 61.032L32.8101 61.496C33.4554 61.624 33.9754 61.8187 34.3701 62.08C34.7647 62.336 35.0634 62.6267 35.2661 62.952C35.4741 63.2773 35.6127 63.6133 35.6821 63.96C35.7567 64.3013 35.7941 64.624 35.7941 64.928C35.7941 65.5307 35.6101 66.0773 35.2421 66.568C34.8741 67.0533 34.3514 67.44 33.6741 67.728C32.9967 68.016 32.1967 68.16 31.2741 68.16Z" fill="#0D0D0D"/>
<rect x="59" y="37" width="50" height="50" stroke="#0D0D0D"/>
<path d="M84.4584 68.16C83.7118 68.16 82.9944 68.0347 82.3064 67.784C81.6238 67.5333 81.0504 67.16 80.5864 66.664C80.1224 66.168 79.8451 65.5467 79.7544 64.8H81.7704C81.8984 65.3867 82.2078 65.8347 82.6984 66.144C83.1891 66.448 83.7731 66.6 84.4504 66.6C85.1651 66.6 85.7704 66.4587 86.2664 66.176C86.7624 65.8933 87.0104 65.4827 87.0104 64.944C87.0104 64.4693 86.8291 64.104 86.4664 63.848C86.1038 63.5867 85.6264 63.392 85.0344 63.264L82.9064 62.8C82.0424 62.624 81.3598 62.2827 80.8584 61.776C80.3624 61.2693 80.1091 60.5947 80.0984 59.752C80.0931 59.0533 80.2771 58.4453 80.6504 57.928C81.0238 57.4053 81.5358 57.0027 82.1864 56.72C82.8424 56.432 83.5811 56.288 84.4024 56.288C85.3624 56.288 86.1704 56.4453 86.8264 56.76C87.4824 57.0747 87.9784 57.4933 88.3144 58.016C88.6558 58.5333 88.8318 59.104 88.8424 59.728H86.8744C86.8051 59.04 86.5384 58.56 86.0744 58.288C85.6158 58.0107 85.0664 57.872 84.4264 57.872C83.7864 57.872 83.2451 58.0187 82.8024 58.312C82.3651 58.6053 82.1464 59.0133 82.1464 59.536C82.1464 59.9093 82.2691 60.2133 82.5144 60.448C82.7651 60.6773 83.2318 60.872 83.9144 61.032L85.9944 61.496C86.6398 61.624 87.1598 61.8187 87.5544 62.08C87.9491 62.336 88.2478 62.6267 88.4504 62.952C88.6584 63.2773 88.7971 63.6133 88.8664 63.96C88.9411 64.3013 88.9784 64.624 88.9784 64.928C88.9784 65.5307 88.7944 66.0773 88.4264 66.568C88.0584 67.0533 87.5358 67.44 86.8584 67.728C86.1811 68.016 85.3811 68.16 84.4584 68.16Z" fill="#0D0D0D"/>
<rect x="117" y="37" width="50" height="50" stroke="#0D0D0D"/>
<path d="M136.548 68V56.432H139.332L142.364 65.272L145.428 56.432H148.196V68H146.22V58.928L143.172 68H141.548L138.524 58.984V68H136.548Z" fill="#0D0D0D"/>
<rect x="175" y="37" width="50" height="50" stroke="#0D0D0D"/>
<path d="M196.666 56.432H198.634V66.32H203.858V68H196.658L196.666 56.432Z" fill="#0D0D0D"/>
<rect x="233" y="37" width="50" height="50" stroke="#0D0D0D"/>
<path d="M259.045 68H256.629L253.781 63.552L250.981 68H248.869L252.749 62.112L248.997 56.432H251.397L253.965 60.48L256.517 56.432H258.613L254.989 61.88L259.045 68ZM260.599 56.432H262.567V66.32H267.791V68H260.591L260.599 56.432Z" fill="#0D0D0D"/>
<rect x="291" y="37" width="50" height="50" stroke="#0D0D0D"/>
<path d="M310.753 68H308.337L305.489 63.552L302.689 68H300.577L304.457 62.112L300.705 56.432H303.105L305.673 60.48L308.225 56.432H310.321L306.697 61.88L310.753 68ZM322.337 68H319.921L317.073 63.552L314.273 68H312.161L316.041 62.112L312.289 56.432H314.689L317.257 60.48L319.809 56.432H321.905L318.281 61.88L322.337 68ZM323.891 56.432H325.859V66.32H331.083V68H323.883L323.891 56.432Z" fill="#0D0D0D"/>
<rect x="349" y="37" width="50" height="50" stroke="#0D0D0D"/>
<path d="M360.17 59.904C360.17 59.1147 360.359 58.4507 360.738 57.912C361.116 57.368 361.623 56.96 362.258 56.688C362.898 56.4107 363.607 56.272 364.386 56.272C365.223 56.272 365.964 56.3867 366.61 56.616C367.26 56.84 367.77 57.1787 368.138 57.632C368.511 58.0853 368.698 58.648 368.698 59.32C368.698 59.896 368.522 60.408 368.17 60.856C367.823 61.2987 367.279 61.648 366.538 61.904C367.231 62.096 367.812 62.4293 368.282 62.904C368.751 63.3733 368.986 63.992 368.986 64.76C368.986 65.4907 368.778 66.112 368.362 66.624C367.951 67.136 367.394 67.5253 366.69 67.792C365.986 68.0533 365.199 68.1813 364.33 68.176C363.028 68.1707 361.996 67.8427 361.234 67.192C360.476 66.5413 360.087 65.656 360.066 64.536H361.962C362.074 65.224 362.346 65.736 362.778 66.072C363.21 66.4027 363.74 66.568 364.37 66.568C365.148 66.568 365.764 66.3973 366.218 66.056C366.671 65.7093 366.898 65.2613 366.898 64.712C366.898 64.1253 366.655 63.6693 366.17 63.344C365.69 63.0187 365.087 62.848 364.362 62.832L363.29 62.8V61.216L364.282 61.176C364.964 61.1547 365.522 60.976 365.954 60.64C366.391 60.2987 366.61 59.8853 366.61 59.4C366.61 58.952 366.407 58.5787 366.002 58.28C365.596 57.976 365.05 57.824 364.362 57.824C363.972 57.824 363.607 57.8933 363.266 58.032C362.924 58.1707 362.642 58.3947 362.418 58.704C362.199 59.008 362.079 59.408 362.058 59.904H360.17ZM380.04 68H377.624L374.776 63.552L371.976 68H369.864L373.744 62.112L369.992 56.432H372.392L374.96 60.48L377.512 56.432H379.608L375.984 61.88L380.04 68ZM381.594 56.432H383.562V66.32H388.786V68H381.586L381.594 56.432Z" fill="#0D0D0D"/>
</svg>
